<svg xmlns="http://www.w3.org/2000/svg" fill="#FFF" width="237" height="299" viewBox="0 0 237 299"><path d="M5.677293,297.41211 C8.993693,298.83401 13.255393,298.35742 15.622593,295.99021 L118.392593,206.48621 L221.162593,295.99421 C223.057093,297.41611 224.951693,298.36141 227.318793,298.36141 C228.740693,298.36141 230.158593,297.88875 231.107893,297.4161 C234.424293,295.9942 236.791493,292.6817 236.791493,288.8927 L236.7954,9.4727 C236.7954,4.2618 232.5337,0 227.3227,0 L9.4727,0.003906 C4.2618,0.003906 0,4.265606 0,9.476606 L0,288.886606 C0,292.671806 2.3672,295.988206 5.6836,297.406106 L5.677293,297.41211 Z M18.939293,18.95211 L217.839293,18.95211 L217.839293,268.06211 L124.542293,187.07811 C122.647793,185.65621 120.757093,184.71091 118.386093,184.71091 C116.018893,184.71091 114.124393,185.65622 112.229893,187.07811 L18.936893,268.06211 L18.939293,18.95211 Z"/></svg>