<svg xmlns="http://www.w3.org/2000/svg" width="20" height="22" viewBox="0 0 20 22"><path fill="#FF001B" d="M19.9999194,12.0471183 C19.9993758,14.4663791 19.1140662,16.8025779 17.5091618,18.6194136 C15.9043269,20.4360414 13.6896938,21.6085399 11.279658,21.9181349 C8.86934387,22.227716 6.4283415,21.6529389 4.41300797,20.3012301 C2.39739608,18.9497914 0.945306548,16.9137661 0.327992789,14.5737571 C-0.28932793,12.2338174 -0.0294590871,9.75012976 1.05866515,7.58725984 C2.14681025,5.42397426 3.98893965,3.72941095 6.24108061,2.81995397 C6.43271858,2.73308864 6.65208033,2.72821853 6.84752475,2.80615278 C7.04324056,2.88408843 7.19845625,3.03806847 7.27701396,3.23263047 C7.35584307,3.4271994 7.35122244,3.64530835 7.26450972,3.83663515 C7.17779631,4.02768485 7.01633164,4.1751668 6.81762355,4.24498328 C4.37606447,5.23244517 2.53657942,7.296943 1.8429278,9.82794625 C1.14949885,12.3589495 1.68092034,15.0672304 3.28033429,17.152511 C4.88001964,19.2375839 7.36451441,20.4610002 9.99987563,20.4610002 C12.6352369,20.4610002 15.12001,19.2375839 16.719417,17.152511 C18.3191023,15.0674382 18.8505447,12.3592266 18.1568235,9.82794625 C17.4633945,7.296943 15.6236868,5.23244517 13.1821277,4.24498328 C12.9834196,4.1751668 12.821955,4.02768485 12.7352415,3.83663515 C12.6485281,3.64531528 12.6441789,3.4271994 12.7227373,3.23263047 C12.8015664,3.03806154 12.9567821,2.88408843 13.1522265,2.80615278 C13.3479423,2.72821714 13.5670327,2.73308725 13.758949,2.81995397 C15.6081764,3.55843747 17.1915782,4.83304891 18.3044269,6.4783569 C19.4172757,8.12366488 20.0079374,10.0636735 19.9999194,12.0472568 L19.9999194,12.0471183 Z M10.0001463,11.1243603 C10.4269147,11.1243603 10.7727106,10.7801411 10.7727106,10.3555338 L10.7727106,0.769103548 C10.7727106,0.344517101 10.4269425,0 10.0001463,0 C9.5736494,0 9.22786044,0.34448939 9.22786044,0.769103548 L9.22786044,10.3555338 C9.22786044,10.5593026 9.30913905,10.7549523 9.45402094,10.8991921 C9.59890283,11.043425 9.79543281,11.1243603 10.0001255,11.1243603 L10.0001463,11.1243603 Z"/></svg>