<svg xmlns="http://www.w3.org/2000/svg" width="120" height="32" viewBox="0 0 120 32"><path fill="#69B3FF" d="M9.6685714,0 C12.5666445,0 14.9025914,0.693289037 16.676412,2.07986711 C17.9127782,3.0463224 18.7486097,4.27676647 19.1839065,5.77119935 L21.2204651,5.77116279 L21.2204651,0.674551495 L27.6287043,0.674551495 L27.6287043,5.77116279 L38.2437209,5.77116279 L38.2437209,9.25634551 C38.9932226,8.10710962 39.9300997,7.20146181 41.0543522,6.53940199 C42.0849169,5.93251383 43.2204465,5.60378276 44.4609413,5.55320875 L44.8018605,5.54631229 L44.8017034,9.77130997 C45.641644,8.51196267 46.731663,7.51585603 48.0717608,6.78299003 C49.6706978,5.90857144 51.5069769,5.47136213 53.580598,5.47136213 C55.6042525,5.47136213 57.4030565,5.89607972 58.97701,6.74551495 C60.5509635,7.59495018 61.7813952,8.80664452 62.6683056,10.380598 C62.9082578,10.8064283 63.1157502,11.2514599 63.2907839,11.7156927 C63.4487876,11.3055869 63.6320524,10.9105178 63.8396013,10.5304983 C64.7265118,8.90657809 65.9694351,7.65740862 67.5683721,6.78299003 C69.1673091,5.90857144 71.0035882,5.47136213 73.0772093,5.47136213 C75.1008638,5.47136213 76.8996678,5.89607972 78.4736213,6.74551495 C80.0475748,7.59495018 81.2780065,8.80664452 82.1649169,10.380598 C82.1745257,10.3976502 82.1840823,10.4147331 82.193587,10.4318469 L82.1932226,5.77116279 L103.076412,5.77116279 L107.910698,18.8499668 L112.707508,5.77116279 L119.640399,5.77116279 L109.006985,31.0763888 L102.11157,31.0763888 L104.425515,25.9702326 L98.095814,10.9407309 L89.276013,21.3982724 L98.344983,21.3982724 L98.344983,26.6822591 L82.1182724,26.6822591 L82.1184359,21.9969772 C81.8340419,22.5088378 81.4997681,22.9963128 81.1156146,23.459402 C80.2037211,24.5586711 79.060731,25.420598 77.6866445,26.0451827 C76.312558,26.6697675 74.7760796,26.9820598 73.0772093,26.9820598 C71.0285713,26.9820598 69.2047842,26.5448505 67.6058472,25.6704319 C66.0069102,24.7960133 64.7577409,23.5468438 63.8583389,21.9229236 C63.6256365,21.5027664 63.4230375,21.0642127 63.2505425,20.6072623 C62.880852,21.6429794 62.3370662,22.5937918 61.6190033,23.459402 C60.7071098,24.5586711 59.5641197,25.420598 58.1900332,26.0451827 C56.8159467,26.6697675 55.2794683,26.9820598 53.580598,26.9820598 C51.53196,26.9820598 49.7081729,26.5448505 48.1092359,25.6704319 C46.5102989,24.7960133 45.2611296,23.5468438 44.3617276,21.9229236 C43.4623256,20.2990033 43.0126246,18.4002658 43.0126246,16.226711 C43.0126246,14.8107662 43.2008165,13.5114474 43.5772007,12.3287546 L43.0405316,12.3293023 C41.4415946,12.3293023 40.2423919,12.6728239 39.4429236,13.3598671 C38.6904827,14.006496 38.2921317,15.1123351 38.2478704,16.6773845 L38.2437209,16.9762126 L38.2437209,26.6822591 L28.6030565,26.6822591 C26.2796013,26.6822591 24.4683057,26.113887 23.1691694,24.9771429 C21.9290849,23.8920689 21.2808588,22.1525359 21.2244914,19.758544 L21.2204651,19.412093 L21.2204651,11.0926246 L18.6721595,11.0926246 L18.6721595,7.86976744 L12.5916279,7.86976744 C12.544291,7.06503935 12.261515,6.42287629 11.7433,5.94327827 L11.6547508,5.8648505 C11.0801329,5.37767442 10.3431229,5.13408638 9.4437209,5.13408638 C8.6692359,5.13408638 8.0446512,5.34019934 7.5699668,5.75242525 C7.0952824,6.16465116 6.8579402,6.75800663 6.8579402,7.53249169 C6.8579402,8.38192692 7.2576744,9.0439867 8.0571429,9.5186711 C8.8566113,9.9933555 10.1057807,10.5055149 11.8046512,11.0551495 C13.5035216,11.6297674 14.8838538,12.179402 15.9456478,12.7040532 C17.0074418,13.2287043 17.9255814,13.9906977 18.7000664,14.9900332 C19.4745515,15.9893688 19.861794,17.2760133 19.861794,18.8499668 C19.861794,20.3489701 19.4807973,21.7105648 18.718804,22.9347508 C17.9568106,24.1589369 16.8512957,25.133289 15.4022591,25.8578073 C13.9532226,26.5823256 12.2418605,26.9445847 10.2681728,26.9445847 C8.3444518,26.9445847 6.620598,26.6322924 5.0966113,26.0077076 C3.5726246,25.3831229 2.3546844,24.4587376 1.4427907,23.2345515 C0.5916899,22.0919778 0.1160062,20.7317711 0.0157395,19.1539313 L-7.10542736e-15,18.8124917 L6.8204651,18.8124917 C6.9203987,19.7868439 7.2576744,20.5300997 7.8322924,21.0422591 C8.4069103,21.5544186 9.1564119,21.8104983 10.0807973,21.8104983 C11.0301661,21.8104983 11.7796678,21.5918937 12.3293023,21.1546844 C12.8789369,20.7174751 13.1537542,20.1116279 13.1537542,19.3371429 C13.1537542,18.6875748 12.9351495,18.1504319 12.4979402,17.7257143 C12.0607309,17.3009967 11.523588,16.9512292 10.8865116,16.676412 C10.2494352,16.4015947 9.3437874,16.0893023 8.1695681,15.7395349 C6.4706977,15.2148837 5.0841196,14.6902326 4.0098339,14.1655814 C2.9355482,13.6409302 2.0111628,12.8664452 1.2366777,11.8421262 C0.4621927,10.8178073 0.0749502,9.48119601 0.0749502,7.83229236 C0.0749502,5.38392028 0.9618605,3.46644518 2.7356811,2.07986711 C4.5095016,0.693289037 6.8204651,0 9.6685714,0 Z M90.812492,11.0551495 L82.5105169,11.0552969 C83.1670274,12.4724972 83.4952824,14.0838767 83.4952824,15.8894352 C83.4952824,16.3391362 83.4742027,16.8028904 83.4320432,17.2806977 L83.3828571,17.7631894 L68.88,17.7631894 C68.9799337,19.0623256 69.3984052,20.0554153 70.1354153,20.7424585 C70.8724254,21.4295016 71.778073,21.7730233 72.8523588,21.7730233 C74.371349,21.7730233 75.4506624,21.1642405 76.0902997,19.9466751 L76.1876412,19.7493688 L83.0081063,19.7493688 C82.8973631,20.1844319 82.7584437,20.6057201 82.5913479,21.0132334 L90.812492,11.0551495 Z M62.5889757,17.7632628 L49.3833887,17.7631894 C49.4833224,19.0623256 49.9017939,20.0554153 50.638804,20.7424585 C51.3758141,21.4295016 52.2814617,21.7730233 53.3557475,21.7730233 C54.8747377,21.7730233 55.9540511,21.1642405 56.5936884,19.9466751 L56.6910299,19.7493688 L62.9682494,19.7496905 C62.7897839,19.1193507 62.6633593,18.4572081 62.5889757,17.7632628 Z M31.8354817,11.0926246 L27.6287043,11.0926246 L27.6287043,19.4870432 C27.6287043,20.1116279 27.7786047,20.5613289 28.0784053,20.8361462 C28.3448948,21.0804282 28.769304,21.2161404 29.3516328,21.2432829 L29.5774086,21.2483721 L31.8354817,21.2483721 L31.8354817,11.0926246 Z M53.5056478,10.6054485 C52.431362,10.6054485 51.5257144,10.9177409 50.7887043,11.5423256 C50.1083873,12.1188653 49.6675564,12.9189251 49.4662109,13.9425049 L49.4208638,14.2030565 L57.4405316,14.2030565 C57.4405316,13.1037874 57.0657807,12.2293688 56.3162791,11.5798007 C55.5667774,10.9302326 54.6299003,10.6054485 53.5056478,10.6054485 Z M73.0022591,10.6054485 C71.9279733,10.6054485 71.0223257,10.9177409 70.2853156,11.5423256 C69.6049986,12.1188653 69.1641677,12.9189251 68.9628222,13.9425049 L68.9174751,14.2030565 L76.9371429,14.2030565 C76.9371429,13.1037874 76.562392,12.2293688 75.8128904,11.5798007 C75.0633887,10.9302326 74.1265116,10.6054485 73.0022591,10.6054485 Z"/></svg>