<svg xmlns="http://www.w3.org/2000/svg" width="296" height="356" viewBox="0 0 296 356"><path fill="#FFF" d="M42.9217561,355.055419 C35.4764561,355.08628 28.1407561,353.23473 21.6017561,349.66833 C14.9728561,346.02773 9.45675607,340.65273 5.65275607,334.11333 C1.84805607,327.57813 -0.105043927,320.12933 0.00435607314,312.56633 L0.00435607314,310.70693 C0.00435607314,305.42173 2.82465607,300.53493 7.40275607,297.89093 C11.9808561,295.24643 17.6257561,295.24643 22.2037561,297.89093 C26.7818561,300.53543 29.6021561,305.42213 29.6021561,310.70693 L29.6021561,312.56633 C29.3755961,317.17573 31.8013561,321.51163 35.8482561,323.73033 C38.6802561,325.09753 41.8326561,325.67173 44.9654561,325.39833 C48.0982561,325.12489 51.0982561,324.00773 53.6529561,322.16783 C104.711956,289.81583 256.792956,190.96783 258.322956,189.97783 C263.010456,187.78253 266.112056,183.18483 266.397156,178.01283 L266.397156,177.00503 L266.397156,177.008936 C266.162776,171.962036 263.190156,167.450336 258.647156,165.242936 C256.803356,164.051536 104.737156,65.2029359 53.6771561,32.8529359 L53.6771561,32.8490299 C51.1263561,31.0092299 48.1263561,29.8920299 44.9935561,29.6185299 C41.8568561,29.3411899 38.7083561,29.9193099 35.8763561,31.2904299 C31.8177561,33.5052299 29.3841561,37.8451299 29.6068561,42.4624299 L29.6068561,251.50243 C29.6068561,256.78763 26.7865561,261.67443 22.2084561,264.31843 C17.6303561,266.95903 11.9854561,266.95903 7.40745607,264.31843 C2.82935607,261.67393 0.00905607313,256.78723 0.00905607313,251.50243 L0.00905607313,42.4624299 C-0.100313927,34.8999299 1.84885607,27.4544299 5.64965607,20.9154299 C9.45045607,14.3802299 14.9582561,9.00142992 21.5876561,5.36042992 C29.0681561,1.45422992 37.4586561,-0.373970079 45.8886561,0.0635299209 C54.3144561,0.504939921 62.4706561,3.19242992 69.5056561,7.85262992 C120.689656,40.3016299 272.925656,139.23263 274.475656,140.23263 L274.475656,140.236537 C283.268656,145.322437 289.983656,153.353537 293.428656,162.908537 C296.873956,172.463237 296.827056,182.931537 293.303656,192.459537 C289.780256,201.986837 282.998656,209.959537 274.166656,214.971537 C272.940056,215.772317 120.716656,314.713537 69.5266561,347.151537 L69.5266561,347.155444 C61.5852561,352.253144 52.3626561,354.991344 42.9246561,355.049944 L42.9217561,355.055419 Z"/></svg>